<svg xmlns="http://www.w3.org/2000/svg" viewBox="0 0 1440 320"><path fill="#e5989b" fill-opacity="1" d="M0,224L26.7,224C53.3,224,107,224,160,224C213.3,224,267,224,320,202.7C373.3,181,427,139,480,106.7C533.3,75,587,53,640,80C693.3,107,747,181,800,218.7C853.3,256,907,256,960,218.7C1013.3,181,1067,107,1120,80C1173.3,53,1227,75,1280,80C1333.3,85,1387,75,1413,69.3L1440,64L1440,320L1413.3,320C1386.7,320,1333,320,1280,320C1226.7,320,1173,320,1120,320C1066.7,320,1013,320,960,320C906.7,320,853,320,800,320C746.7,320,693,320,640,320C586.7,320,533,320,480,320C426.7,320,373,320,320,320C266.7,320,213,320,160,320C106.7,320,53,320,27,320L0,320Z"></path></svg>