<?xml version="1.0" standalone="no"?><svg xmlns="http://www.w3.org/2000/svg" viewBox="0 0 1440 320"><path fill="#e5989b" fill-opacity="1" d="M0,224L26.7,218.7C53.3,213,107,203,160,202.7C213.3,203,267,213,320,224C373.3,235,427,245,480,250.7C533.3,256,587,256,640,229.3C693.3,203,747,149,800,133.3C853.3,117,907,139,960,165.3C1013.3,192,1067,224,1120,234.7C1173.3,245,1227,235,1280,208C1333.3,181,1387,139,1413,117.3L1440,96L1440,0L1413.3,0C1386.7,0,1333,0,1280,0C1226.7,0,1173,0,1120,0C1066.7,0,1013,0,960,0C906.7,0,853,0,800,0C746.7,0,693,0,640,0C586.7,0,533,0,480,0C426.7,0,373,0,320,0C266.7,0,213,0,160,0C106.7,0,53,0,27,0L0,0Z"></path></svg>